<?xml version="1.0" encoding="UTF-8" standalone="no"?>
<!-- Created with Inkscape (http://www.inkscape.org/) -->

<svg
   xmlns:dc="http://purl.org/dc/elements/1.1/"
   xmlns:cc="http://creativecommons.org/ns#"
   xmlns:rdf="http://www.w3.org/1999/02/22-rdf-syntax-ns#"
   xmlns:svg="http://www.w3.org/2000/svg"
   xmlns="http://www.w3.org/2000/svg"
   xmlns:sodipodi="http://sodipodi.sourceforge.net/DTD/sodipodi-0.dtd"
   xmlns:inkscape="http://www.inkscape.org/namespaces/inkscape"
   width="649.32733"
   height="248.02599"
   viewBox="0 0 171.80118 65.623542"
   version="1.1"
   id="svg8"
   inkscape:version="0.92.2 (5c3e80d, 2017-08-06)"
   sodipodi:docname="codequality.svg"
   inkscape:export-filename="/home/slokits/Desktop/code_coverage/res/codequality.svg.png"
   inkscape:export-xdpi="96"
   inkscape:export-ydpi="96">
  <defs
     id="defs2" />
  <sodipodi:namedview
     id="base"
     pagecolor="#ffffff"
     bordercolor="#666666"
     borderopacity="1.0"
     inkscape:pageopacity="0.0"
     inkscape:pageshadow="2"
     inkscape:zoom="0.98994949"
     inkscape:cx="407.83093"
     inkscape:cy="110.46461"
     inkscape:document-units="mm"
     inkscape:current-layer="g1095"
     showgrid="false"
     units="px"
     inkscape:window-width="1676"
     inkscape:window-height="1023"
     inkscape:window-x="0"
     inkscape:window-y="0"
     inkscape:window-maximized="0"
     fit-margin-top="50"
     fit-margin-bottom="50"
     fit-margin-left="50"
     fit-margin-right="50" />
  <metadata
     id="metadata5">
    <rdf:RDF>
      <cc:Work
         rdf:about="">
        <dc:format>image/svg+xml</dc:format>
        <dc:type
           rdf:resource="http://purl.org/dc/dcmitype/StillImage" />
        <dc:title></dc:title>
      </cc:Work>
    </rdf:RDF>
  </metadata>
  <g
     inkscape:label="Layer 1"
     inkscape:groupmode="layer"
     id="layer1"
     transform="translate(4.5689904,-225.24797)">
    <g
       id="g1095"
       transform="matrix(1.5648599,0,0,1.5648599,-26.280898,-133.50503)">
      <g
         id="g1611"
         transform="matrix(1.5924308,0,0,1.5924308,-13.00081,-160.70586)">
        <g
           id="g1046"
           transform="matrix(0.16169558,0,0,0.16169558,21.01188,249.14979)">
          <path
             id="path1014"
             d="M 29.7,94.1 17.5,84.6 29,76.3 c 0.5,-0.4 0.9,-0.9 1,-1.6 0.1,-0.6 0,-1.3 -0.4,-1.8 -0.4,-0.5 -0.9,-0.9 -1.6,-1 -0.1,0 -0.3,0 -0.4,0 -0.5,0 -1,0.2 -1.4,0.5 l -14,10.2 c -0.6,0.4 -1,1.1 -1,1.9 0,0.8 0.3,1.5 0.9,1.9 l 14.7,11.5 c 0.4,0.3 0.9,0.5 1.5,0.5 0,0 0,0 0,0 0.7,0 1.4,-0.3 1.9,-0.9 0.8,-1.1 0.6,-2.6 -0.5,-3.4 z"
             inkscape:connector-curvature="0" />
          <path
             id="path1016"
             d="M 74.1,97.9 88.8,86.4 c 0.6,-0.5 0.9,-1.2 0.9,-1.9 0,-0.8 -0.4,-1.5 -1,-1.9 L 74.5,72.4 c -0.4,-0.3 -0.9,-0.5 -1.4,-0.5 -0.7,0 -1.5,0.3 -2,1 -0.4,0.5 -0.5,1.2 -0.4,1.8 0.1,0.6 0.4,1.2 1,1.6 L 83.2,84.6 71,94.1 c -1,0.8 -1.2,2.3 -0.4,3.4 0.9,1 2.5,1.2 3.5,0.4 z"
             inkscape:connector-curvature="0" />
          <path
             id="path1018"
             d="M 77.5,6.3 C 76.9,5.9 76.1,5.8 75.4,6 L 75.3,6.1 C 75,6.3 74.7,6.5 74.4,6.9 l -5.6,8 c -0.3,0.5 -0.5,1.1 -0.4,1.7 0.1,0.6 0.4,1.1 0.9,1.4 0.7,0.5 1.5,0.5 2.2,0.2 0.3,-0.2 0.7,-0.4 0.9,-0.8 L 78,9.4 C 78.3,8.9 78.5,8.3 78.4,7.7 78.3,7.1 78,6.6 77.5,6.3 Z"
             inkscape:connector-curvature="0" />
          <path
             id="path1020"
             d="M 24,6.6 C 24.5,6.1 25.3,6 26,6.2 h 0.1 c 0.3,0.1 0.7,0.4 0.9,0.7 l 5.9,7.8 c 0.4,0.5 0.5,1.1 0.5,1.7 -0.1,0.6 -0.4,1.1 -0.8,1.5 -0.7,0.5 -1.5,0.6 -2.2,0.3 C 30,18.1 29.7,17.8 29.5,17.5 L 23.6,9.7 C 23.2,9.2 23.1,8.6 23.2,8.1 23.2,7.5 23.5,6.9 24,6.6 Z"
             inkscape:connector-curvature="0" />
          <path
             id="path1022"
             d="M 87.9,45.6 71.1,27 c -0.4,-0.5 -1,-0.7 -1.7,-0.7 h -37 c -0.1,0 -0.2,0 -0.3,0 -0.6,0.1 -1.1,0.3 -1.5,0.7 L 13.8,45.6 c -0.8,0.9 -0.7,2.3 0.1,3.1 l 35.4,35.4 c 0.4,0.4 1,0.6 1.6,0.6 0.6,0 1.2,-0.2 1.6,-0.6 L 87.9,48.7 c 0.7,-0.8 0.8,-2.3 0,-3.1 z M 81.1,44.8 H 67.5 l -6.6,-14 h 7.6 z M 62.6,49.4 50.9,76.7 39.1,49.4 Z m -23.3,-4.6 6.6,-14 h 9.8 l 6.6,14 z m 1.6,-13.9 -6.6,14 H 20.6 l 12.7,-14 z M 34.2,49.4 44.1,72.5 21,49.4 Z m 46.5,0 -23.1,23.1 9.9,-23.1 z"
             inkscape:connector-curvature="0"
             style="fill:#cc0000;fill-opacity:1" />
          <path
             id="path1024"
             d="m 51.1,1.2 c -0.7,0 -1.4,0.3 -1.9,1 L 49.1,2.3 C 49,2.6 48.9,3 48.9,3.4 l -0.2,9.8 c 0,0.6 0.2,1.2 0.6,1.6 0.4,0.4 1,0.7 1.6,0.7 0.8,0 1.6,-0.4 2,-1.1 0.2,-0.3 0.3,-0.7 0.3,-1.1 L 53.4,3.5 C 53.4,2.9 53.2,2.3 52.8,1.9 52.3,1.5 51.7,1.3 51.1,1.2 Z"
             inkscape:connector-curvature="0" />
        </g>
        <g
           transform="translate(0,0.84754864)"
           id="g1559">
          <flowRoot
             transform="matrix(0.29088963,0,0,0.29088963,26.050895,236.85718)"
             style="font-style:normal;font-variant:normal;font-weight:normal;font-stretch:normal;font-size:26.57010651px;line-height:75%;font-family:Overpass;-inkscape-font-specification:Overpass;letter-spacing:0px;word-spacing:0px;fill:#cc0000;fill-opacity:1;stroke:none;stroke-width:1px;stroke-linecap:butt;stroke-linejoin:miter;stroke-opacity:1"
             id="flowRoot4504"
             xml:space="preserve"><flowRegion
               style="font-style:normal;font-variant:normal;font-weight:normal;font-stretch:normal;font-size:26.57010651px;line-height:75%;font-family:Overpass;-inkscape-font-specification:Overpass;fill:#cc0000;fill-opacity:1"
               id="flowRegion4506"><rect
                 style="font-style:normal;font-variant:normal;font-weight:normal;font-stretch:normal;font-size:26.57010651px;line-height:75%;font-family:Overpass;-inkscape-font-specification:Overpass;fill:#cc0000;fill-opacity:1"
                 y="60"
                 x="30"
                 height="123.75845"
                 width="167.75067"
                 id="rect4508" /></flowRegion><flowPara
               style="font-style:normal;font-variant:normal;font-weight:800;font-stretch:normal;font-size:26.57010651px;line-height:21.80799991%;font-family:Overpass;-inkscape-font-specification:'Overpass Ultra-Bold';text-align:center;text-anchor:middle;fill:#cc0000;fill-opacity:1"
               id="flowPara1505">CodeQuality</flowPara></flowRoot>          <flowRoot
             xml:space="preserve"
             id="flowRoot1515"
             style="font-style:normal;font-weight:normal;font-size:40px;line-height:125%;font-family:sans-serif;letter-spacing:0px;word-spacing:0px;fill:#000000;fill-opacity:1;stroke:none;stroke-width:1px;stroke-linecap:butt;stroke-linejoin:miter;stroke-opacity:1"
             transform="matrix(0.15867467,0,0,0.15867467,13.224016,238.74353)"><flowRegion
               id="flowRegion1517"><rect
                 id="rect1519"
                 width="254.99997"
                 height="93.571434"
                 x="151.42857"
                 y="111.42857" /></flowRegion><flowPara
               id="flowPara1521"
               style="font-style:normal;font-variant:normal;font-weight:600;font-stretch:normal;font-size:13.33333302px;line-height:0px;font-family:Overpass;-inkscape-font-specification:'Overpass Semi-Bold';text-align:center;text-anchor:middle">Enterprise-Level, Open &amp; Free Workflow</flowPara></flowRoot>        </g>
      </g>
      <flowRoot
         xml:space="preserve"
         id="flowRoot1543"
         style="font-style:normal;font-weight:normal;font-size:40px;line-height:125%;font-family:sans-serif;letter-spacing:0px;word-spacing:0px;fill:#000000;fill-opacity:1;stroke:none;stroke-width:1px;stroke-linecap:butt;stroke-linejoin:miter;stroke-opacity:1"
         transform="matrix(0.16907797,0,0,0.16907797,21.181671,226.94463)"><flowRegion
           id="flowRegion1545"><rect
             id="rect1547"
             width="347.85715"
             height="102.14286"
             x="137.85715"
             y="177.85715" /></flowRegion><flowPara
           id="flowPara1549"
           style="font-style:normal;font-variant:normal;font-weight:600;font-stretch:normal;font-size:13.33333302px;font-family:Overpass;-inkscape-font-specification:'Overpass Semi-Bold'" /></flowRoot>    </g>
  </g>
</svg>
